<svg width="2500" height="2500" viewBox="0 0 2500 2500" fill="none" xmlns="http://www.w3.org/2000/svg">
<rect width="2500" height="2500" rx="500" fill="#222222"/>
<path d="M2026.01 2031.72L2015.43 2025.05L2026.01 2031.72C2034.79 2017.79 2033.54 2002.25 2028.49 1985.77C2023.55 1969.7 2014.03 1949.74 2002.17 1924.86L2001.7 1923.88L1605.65 1093.56L1605.16 1092.53C1589.93 1060.58 1577.87 1035.31 1566.38 1018.15C1554.87 1000.94 1541.39 987.983 1522.18 987.982C1502.96 987.98 1489.48 1000.94 1477.96 1018.14C1466.47 1035.3 1454.41 1060.57 1439.17 1092.52L1438.68 1093.55L1426.95 1118.14C1426.58 1118.9 1426.22 1119.66 1425.86 1120.41C1418.84 1135.1 1413.61 1146.03 1413.61 1157.96C1413.61 1169.9 1418.84 1180.83 1425.86 1195.52C1426.21 1196.27 1426.58 1197.03 1426.94 1197.79L1811.26 2003.53L1811.53 2004.11C1816.58 2014.68 1820.78 2023.49 1824.98 2030.36C1829.42 2037.6 1834.41 2043.63 1841.49 2048.1C1848.58 2052.57 1856.17 2054.48 1864.62 2055.36C1872.63 2056.2 1882.38 2056.2 1894.1 2056.2L1894.75 2056.2L1918.21 2056.2L1919.29 2056.2C1946.86 2056.2 1968.97 2056.2 1985.61 2053.74C2002.66 2051.21 2017.22 2045.64 2026.01 2031.72Z" stroke="white" stroke-width="25"/>
<path d="M1358.19 588.096C1358.18 576.144 1352.94 565.208 1345.89 550.505C1345.53 549.757 1345.17 549 1344.8 548.232L1333.05 523.674L1332.56 522.647C1317.3 490.754 1305.23 465.527 1293.74 448.392C1282.21 431.218 1268.72 418.286 1249.52 418.298C1230.32 418.309 1216.85 431.256 1205.35 448.444C1193.87 465.593 1181.83 490.834 1166.61 522.746L1166.12 523.773L498.516 1923.43L498.048 1924.42C486.14 1949.38 476.587 1969.41 471.64 1985.53C466.571 2002.05 465.32 2017.63 474.151 2031.57C482.982 2045.51 497.602 2051.04 514.706 2053.52C531.394 2055.94 553.583 2055.86 581.242 2055.76L582.33 2055.76L605.832 2055.67L606.475 2055.67C618.15 2055.63 627.868 2055.6 635.849 2054.73C644.267 2053.82 651.825 2051.91 658.88 2047.44C665.935 2042.97 670.899 2036.96 675.319 2029.73C679.51 2022.89 683.694 2014.12 688.72 2003.58L688.996 2003L1344.85 627.975C1345.21 627.207 1345.58 626.449 1345.93 625.701C1352.97 610.99 1358.2 600.047 1358.19 588.096Z" stroke="white" stroke-width="25"/>
<path d="M588.333 462.504C607.944 451.16 630.714 444.667 654.999 444.667C728.638 444.667 788.333 504.362 788.333 578C788.333 651.638 728.638 711.333 654.999 711.333C581.361 711.333 521.666 651.638 521.666 578C521.666 553.715 528.159 530.945 539.504 511.333" stroke="white" stroke-width="25" stroke-linecap="round"/>
<path d="M685.516 626.773C595.041 674.975 508.035 692.215 491.182 665.278C482.294 651.073 494.692 627.418 521.667 601.162M752.477 481.181C786.009 474.988 810.652 477.667 818.819 490.721C832.111 511.963 797.804 554.335 738.334 594.94" stroke="white" stroke-width="25" stroke-linecap="round" stroke-linejoin="round"/>
</svg>
